<?xml version="1.0" encoding="utf-8" standalone="no"?>
<!DOCTYPE svg PUBLIC "-//W3C//DTD SVG 1.1//EN"
  "http://www.w3.org/Graphics/SVG/1.1/DTD/svg11.dtd">
<svg xmlns:xlink="http://www.w3.org/1999/xlink" width="864pt" height="360pt" viewBox="0 0 864 360" xmlns="http://www.w3.org/2000/svg" version="1.1">
 <metadata>
  <rdf:RDF xmlns:dc="http://purl.org/dc/elements/1.1/" xmlns:cc="http://creativecommons.org/ns#" xmlns:rdf="http://www.w3.org/1999/02/22-rdf-syntax-ns#">
   <cc:Work>
    <dc:type rdf:resource="http://purl.org/dc/dcmitype/StillImage"/>
    <dc:date>2023-12-03T08:11:25.125583</dc:date>
    <dc:format>image/svg+xml</dc:format>
    <dc:creator>
     <cc:Agent>
      <dc:title>Matplotlib v3.8.2, https://matplotlib.org/</dc:title>
     </cc:Agent>
    </dc:creator>
   </cc:Work>
  </rdf:RDF>
 </metadata>
 <defs>
  <style type="text/css">*{stroke-linejoin: round; stroke-linecap: butt}</style>
 </defs>
 <g id="figure_1">
  <g id="patch_1">
   <path d="M 0 360 
L 864 360 
L 864 0 
L 0 0 
L 0 360 
z
" style="fill: none; opacity: 0"/>
  </g>
  <g id="axes_1">
   <g id="patch_2">
    <path d="M 108 320.4 
L 777.6 320.4 
L 777.6 43.2 
L 108 43.2 
L 108 320.4 
z
" style="fill: none; opacity: 0"/>
   </g>
   <g id="matplotlib.axis_1">
    <g id="xtick_1">
     <g id="line2d_1">
      <path d="M 122.194221 320.4 
L 122.194221 43.2 
" clip-path="url(#p77ead019f3)" style="fill: none; stroke-dasharray: 5.12,1.28,0.8,1.28; stroke-dashoffset: 0; stroke: #b0b0b0; stroke-width: 0.8"/>
     </g>
     <g id="line2d_2">
      <defs>
       <path id="m05a8bc459a" d="M 0 0 
L 0 3.5 
" style="stroke: #a9a9a9; stroke-width: 0.8"/>
      </defs>
      <g>
       <use xlink:href="#m05a8bc459a" x="122.194221" y="320.4" style="fill: #a9a9a9; stroke: #a9a9a9; stroke-width: 0.8"/>
      </g>
     </g>
     <g id="text_1">
      <!-- 2021-07 -->
      <g style="fill: #a9a9a9" transform="translate(101.302814 334.998438) scale(0.1 -0.1)">
       <defs>
        <path id="DejaVuSans-32" d="M 1228 531 
L 3431 531 
L 3431 0 
L 469 0 
L 469 531 
Q 828 903 1448 1529 
Q 2069 2156 2228 2338 
Q 2531 2678 2651 2914 
Q 2772 3150 2772 3378 
Q 2772 3750 2511 3984 
Q 2250 4219 1831 4219 
Q 1534 4219 1204 4116 
Q 875 4013 500 3803 
L 500 4441 
Q 881 4594 1212 4672 
Q 1544 4750 1819 4750 
Q 2544 4750 2975 4387 
Q 3406 4025 3406 3419 
Q 3406 3131 3298 2873 
Q 3191 2616 2906 2266 
Q 2828 2175 2409 1742 
Q 1991 1309 1228 531 
z
" transform="scale(0.015625)"/>
        <path id="DejaVuSans-30" d="M 2034 4250 
Q 1547 4250 1301 3770 
Q 1056 3291 1056 2328 
Q 1056 1369 1301 889 
Q 1547 409 2034 409 
Q 2525 409 2770 889 
Q 3016 1369 3016 2328 
Q 3016 3291 2770 3770 
Q 2525 4250 2034 4250 
z
M 2034 4750 
Q 2819 4750 3233 4129 
Q 3647 3509 3647 2328 
Q 3647 1150 3233 529 
Q 2819 -91 2034 -91 
Q 1250 -91 836 529 
Q 422 1150 422 2328 
Q 422 3509 836 4129 
Q 1250 4750 2034 4750 
z
" transform="scale(0.015625)"/>
        <path id="DejaVuSans-31" d="M 794 531 
L 1825 531 
L 1825 4091 
L 703 3866 
L 703 4441 
L 1819 4666 
L 2450 4666 
L 2450 531 
L 3481 531 
L 3481 0 
L 794 0 
L 794 531 
z
" transform="scale(0.015625)"/>
        <path id="DejaVuSans-2d" d="M 313 2009 
L 1997 2009 
L 1997 1497 
L 313 1497 
L 313 2009 
z
" transform="scale(0.015625)"/>
        <path id="DejaVuSans-37" d="M 525 4666 
L 3525 4666 
L 3525 4397 
L 1831 0 
L 1172 0 
L 2766 4134 
L 525 4134 
L 525 4666 
z
" transform="scale(0.015625)"/>
       </defs>
       <use xlink:href="#DejaVuSans-32"/>
       <use xlink:href="#DejaVuSans-30" x="63.623047"/>
       <use xlink:href="#DejaVuSans-32" x="127.246094"/>
       <use xlink:href="#DejaVuSans-31" x="190.869141"/>
       <use xlink:href="#DejaVuSans-2d" x="254.492188"/>
       <use xlink:href="#DejaVuSans-30" x="290.576172"/>
       <use xlink:href="#DejaVuSans-37" x="354.199219"/>
      </g>
     </g>
    </g>
    <g id="xtick_2">
     <g id="line2d_3">
      <path d="M 187.162793 320.4 
L 187.162793 43.2 
" clip-path="url(#p77ead019f3)" style="fill: none; stroke-dasharray: 5.12,1.28,0.8,1.28; stroke-dashoffset: 0; stroke: #b0b0b0; stroke-width: 0.8"/>
     </g>
     <g id="line2d_4">
      <g>
       <use xlink:href="#m05a8bc459a" x="187.162793" y="320.4" style="fill: #a9a9a9; stroke: #a9a9a9; stroke-width: 0.8"/>
      </g>
     </g>
     <g id="text_2">
      <!-- 2021-10 -->
      <g style="fill: #a9a9a9" transform="translate(166.271386 334.998438) scale(0.1 -0.1)">
       <use xlink:href="#DejaVuSans-32"/>
       <use xlink:href="#DejaVuSans-30" x="63.623047"/>
       <use xlink:href="#DejaVuSans-32" x="127.246094"/>
       <use xlink:href="#DejaVuSans-31" x="190.869141"/>
       <use xlink:href="#DejaVuSans-2d" x="254.492188"/>
       <use xlink:href="#DejaVuSans-31" x="290.576172"/>
       <use xlink:href="#DejaVuSans-30" x="354.199219"/>
      </g>
     </g>
    </g>
    <g id="xtick_3">
     <g id="line2d_5">
      <path d="M 252.131365 320.4 
L 252.131365 43.2 
" clip-path="url(#p77ead019f3)" style="fill: none; stroke-dasharray: 5.12,1.28,0.8,1.28; stroke-dashoffset: 0; stroke: #b0b0b0; stroke-width: 0.8"/>
     </g>
     <g id="line2d_6">
      <g>
       <use xlink:href="#m05a8bc459a" x="252.131365" y="320.4" style="fill: #a9a9a9; stroke: #a9a9a9; stroke-width: 0.8"/>
      </g>
     </g>
     <g id="text_3">
      <!-- 2022-01 -->
      <g style="fill: #a9a9a9" transform="translate(231.239958 334.998438) scale(0.1 -0.1)">
       <use xlink:href="#DejaVuSans-32"/>
       <use xlink:href="#DejaVuSans-30" x="63.623047"/>
       <use xlink:href="#DejaVuSans-32" x="127.246094"/>
       <use xlink:href="#DejaVuSans-32" x="190.869141"/>
       <use xlink:href="#DejaVuSans-2d" x="254.492188"/>
       <use xlink:href="#DejaVuSans-30" x="290.576172"/>
       <use xlink:href="#DejaVuSans-31" x="354.199219"/>
      </g>
     </g>
    </g>
    <g id="xtick_4">
     <g id="line2d_7">
      <path d="M 315.687576 320.4 
L 315.687576 43.2 
" clip-path="url(#p77ead019f3)" style="fill: none; stroke-dasharray: 5.12,1.28,0.8,1.28; stroke-dashoffset: 0; stroke: #b0b0b0; stroke-width: 0.8"/>
     </g>
     <g id="line2d_8">
      <g>
       <use xlink:href="#m05a8bc459a" x="315.687576" y="320.4" style="fill: #a9a9a9; stroke: #a9a9a9; stroke-width: 0.8"/>
      </g>
     </g>
     <g id="text_4">
      <!-- 2022-04 -->
      <g style="fill: #a9a9a9" transform="translate(294.79617 334.998438) scale(0.1 -0.1)">
       <defs>
        <path id="DejaVuSans-34" d="M 2419 4116 
L 825 1625 
L 2419 1625 
L 2419 4116 
z
M 2253 4666 
L 3047 4666 
L 3047 1625 
L 3713 1625 
L 3713 1100 
L 3047 1100 
L 3047 0 
L 2419 0 
L 2419 1100 
L 313 1100 
L 313 1709 
L 2253 4666 
z
" transform="scale(0.015625)"/>
       </defs>
       <use xlink:href="#DejaVuSans-32"/>
       <use xlink:href="#DejaVuSans-30" x="63.623047"/>
       <use xlink:href="#DejaVuSans-32" x="127.246094"/>
       <use xlink:href="#DejaVuSans-32" x="190.869141"/>
       <use xlink:href="#DejaVuSans-2d" x="254.492188"/>
       <use xlink:href="#DejaVuSans-30" x="290.576172"/>
       <use xlink:href="#DejaVuSans-34" x="354.199219"/>
      </g>
     </g>
    </g>
    <g id="xtick_5">
     <g id="line2d_9">
      <path d="M 379.949968 320.4 
L 379.949968 43.2 
" clip-path="url(#p77ead019f3)" style="fill: none; stroke-dasharray: 5.12,1.28,0.8,1.28; stroke-dashoffset: 0; stroke: #b0b0b0; stroke-width: 0.8"/>
     </g>
     <g id="line2d_10">
      <g>
       <use xlink:href="#m05a8bc459a" x="379.949968" y="320.4" style="fill: #a9a9a9; stroke: #a9a9a9; stroke-width: 0.8"/>
      </g>
     </g>
     <g id="text_5">
      <!-- 2022-07 -->
      <g style="fill: #a9a9a9" transform="translate(359.058562 334.998438) scale(0.1 -0.1)">
       <use xlink:href="#DejaVuSans-32"/>
       <use xlink:href="#DejaVuSans-30" x="63.623047"/>
       <use xlink:href="#DejaVuSans-32" x="127.246094"/>
       <use xlink:href="#DejaVuSans-32" x="190.869141"/>
       <use xlink:href="#DejaVuSans-2d" x="254.492188"/>
       <use xlink:href="#DejaVuSans-30" x="290.576172"/>
       <use xlink:href="#DejaVuSans-37" x="354.199219"/>
      </g>
     </g>
    </g>
    <g id="xtick_6">
     <g id="line2d_11">
      <path d="M 444.91854 320.4 
L 444.91854 43.2 
" clip-path="url(#p77ead019f3)" style="fill: none; stroke-dasharray: 5.12,1.28,0.8,1.28; stroke-dashoffset: 0; stroke: #b0b0b0; stroke-width: 0.8"/>
     </g>
     <g id="line2d_12">
      <g>
       <use xlink:href="#m05a8bc459a" x="444.91854" y="320.4" style="fill: #a9a9a9; stroke: #a9a9a9; stroke-width: 0.8"/>
      </g>
     </g>
     <g id="text_6">
      <!-- 2022-10 -->
      <g style="fill: #a9a9a9" transform="translate(424.027134 334.998438) scale(0.1 -0.1)">
       <use xlink:href="#DejaVuSans-32"/>
       <use xlink:href="#DejaVuSans-30" x="63.623047"/>
       <use xlink:href="#DejaVuSans-32" x="127.246094"/>
       <use xlink:href="#DejaVuSans-32" x="190.869141"/>
       <use xlink:href="#DejaVuSans-2d" x="254.492188"/>
       <use xlink:href="#DejaVuSans-31" x="290.576172"/>
       <use xlink:href="#DejaVuSans-30" x="354.199219"/>
      </g>
     </g>
    </g>
    <g id="xtick_7">
     <g id="line2d_13">
      <path d="M 509.887112 320.4 
L 509.887112 43.2 
" clip-path="url(#p77ead019f3)" style="fill: none; stroke-dasharray: 5.12,1.28,0.8,1.28; stroke-dashoffset: 0; stroke: #b0b0b0; stroke-width: 0.8"/>
     </g>
     <g id="line2d_14">
      <g>
       <use xlink:href="#m05a8bc459a" x="509.887112" y="320.4" style="fill: #a9a9a9; stroke: #a9a9a9; stroke-width: 0.8"/>
      </g>
     </g>
     <g id="text_7">
      <!-- 2023-01 -->
      <g style="fill: #a9a9a9" transform="translate(488.995706 334.998438) scale(0.1 -0.1)">
       <defs>
        <path id="DejaVuSans-33" d="M 2597 2516 
Q 3050 2419 3304 2112 
Q 3559 1806 3559 1356 
Q 3559 666 3084 287 
Q 2609 -91 1734 -91 
Q 1441 -91 1130 -33 
Q 819 25 488 141 
L 488 750 
Q 750 597 1062 519 
Q 1375 441 1716 441 
Q 2309 441 2620 675 
Q 2931 909 2931 1356 
Q 2931 1769 2642 2001 
Q 2353 2234 1838 2234 
L 1294 2234 
L 1294 2753 
L 1863 2753 
Q 2328 2753 2575 2939 
Q 2822 3125 2822 3475 
Q 2822 3834 2567 4026 
Q 2313 4219 1838 4219 
Q 1578 4219 1281 4162 
Q 984 4106 628 3988 
L 628 4550 
Q 988 4650 1302 4700 
Q 1616 4750 1894 4750 
Q 2613 4750 3031 4423 
Q 3450 4097 3450 3541 
Q 3450 3153 3228 2886 
Q 3006 2619 2597 2516 
z
" transform="scale(0.015625)"/>
       </defs>
       <use xlink:href="#DejaVuSans-32"/>
       <use xlink:href="#DejaVuSans-30" x="63.623047"/>
       <use xlink:href="#DejaVuSans-32" x="127.246094"/>
       <use xlink:href="#DejaVuSans-33" x="190.869141"/>
       <use xlink:href="#DejaVuSans-2d" x="254.492188"/>
       <use xlink:href="#DejaVuSans-30" x="290.576172"/>
       <use xlink:href="#DejaVuSans-31" x="354.199219"/>
      </g>
     </g>
    </g>
    <g id="xtick_8">
     <g id="line2d_15">
      <path d="M 573.443324 320.4 
L 573.443324 43.2 
" clip-path="url(#p77ead019f3)" style="fill: none; stroke-dasharray: 5.12,1.28,0.8,1.28; stroke-dashoffset: 0; stroke: #b0b0b0; stroke-width: 0.8"/>
     </g>
     <g id="line2d_16">
      <g>
       <use xlink:href="#m05a8bc459a" x="573.443324" y="320.4" style="fill: #a9a9a9; stroke: #a9a9a9; stroke-width: 0.8"/>
      </g>
     </g>
     <g id="text_8">
      <!-- 2023-04 -->
      <g style="fill: #a9a9a9" transform="translate(552.551918 334.998438) scale(0.1 -0.1)">
       <use xlink:href="#DejaVuSans-32"/>
       <use xlink:href="#DejaVuSans-30" x="63.623047"/>
       <use xlink:href="#DejaVuSans-32" x="127.246094"/>
       <use xlink:href="#DejaVuSans-33" x="190.869141"/>
       <use xlink:href="#DejaVuSans-2d" x="254.492188"/>
       <use xlink:href="#DejaVuSans-30" x="290.576172"/>
       <use xlink:href="#DejaVuSans-34" x="354.199219"/>
      </g>
     </g>
    </g>
    <g id="xtick_9">
     <g id="line2d_17">
      <path d="M 637.705716 320.4 
L 637.705716 43.2 
" clip-path="url(#p77ead019f3)" style="fill: none; stroke-dasharray: 5.12,1.28,0.8,1.28; stroke-dashoffset: 0; stroke: #b0b0b0; stroke-width: 0.8"/>
     </g>
     <g id="line2d_18">
      <g>
       <use xlink:href="#m05a8bc459a" x="637.705716" y="320.4" style="fill: #a9a9a9; stroke: #a9a9a9; stroke-width: 0.8"/>
      </g>
     </g>
     <g id="text_9">
      <!-- 2023-07 -->
      <g style="fill: #a9a9a9" transform="translate(616.81431 334.998438) scale(0.1 -0.1)">
       <use xlink:href="#DejaVuSans-32"/>
       <use xlink:href="#DejaVuSans-30" x="63.623047"/>
       <use xlink:href="#DejaVuSans-32" x="127.246094"/>
       <use xlink:href="#DejaVuSans-33" x="190.869141"/>
       <use xlink:href="#DejaVuSans-2d" x="254.492188"/>
       <use xlink:href="#DejaVuSans-30" x="290.576172"/>
       <use xlink:href="#DejaVuSans-37" x="354.199219"/>
      </g>
     </g>
    </g>
    <g id="xtick_10">
     <g id="line2d_19">
      <path d="M 702.674288 320.4 
L 702.674288 43.2 
" clip-path="url(#p77ead019f3)" style="fill: none; stroke-dasharray: 5.12,1.28,0.8,1.28; stroke-dashoffset: 0; stroke: #b0b0b0; stroke-width: 0.8"/>
     </g>
     <g id="line2d_20">
      <g>
       <use xlink:href="#m05a8bc459a" x="702.674288" y="320.4" style="fill: #a9a9a9; stroke: #a9a9a9; stroke-width: 0.8"/>
      </g>
     </g>
     <g id="text_10">
      <!-- 2023-10 -->
      <g style="fill: #a9a9a9" transform="translate(681.782882 334.998438) scale(0.1 -0.1)">
       <use xlink:href="#DejaVuSans-32"/>
       <use xlink:href="#DejaVuSans-30" x="63.623047"/>
       <use xlink:href="#DejaVuSans-32" x="127.246094"/>
       <use xlink:href="#DejaVuSans-33" x="190.869141"/>
       <use xlink:href="#DejaVuSans-2d" x="254.492188"/>
       <use xlink:href="#DejaVuSans-31" x="290.576172"/>
       <use xlink:href="#DejaVuSans-30" x="354.199219"/>
      </g>
     </g>
    </g>
    <g id="xtick_11">
     <g id="line2d_21">
      <path d="M 767.64286 320.4 
L 767.64286 43.2 
" clip-path="url(#p77ead019f3)" style="fill: none; stroke-dasharray: 5.12,1.28,0.8,1.28; stroke-dashoffset: 0; stroke: #b0b0b0; stroke-width: 0.8"/>
     </g>
     <g id="line2d_22">
      <g>
       <use xlink:href="#m05a8bc459a" x="767.64286" y="320.4" style="fill: #a9a9a9; stroke: #a9a9a9; stroke-width: 0.8"/>
      </g>
     </g>
     <g id="text_11">
      <!-- 2024-01 -->
      <g style="fill: #a9a9a9" transform="translate(746.751454 334.998438) scale(0.1 -0.1)">
       <use xlink:href="#DejaVuSans-32"/>
       <use xlink:href="#DejaVuSans-30" x="63.623047"/>
       <use xlink:href="#DejaVuSans-32" x="127.246094"/>
       <use xlink:href="#DejaVuSans-34" x="190.869141"/>
       <use xlink:href="#DejaVuSans-2d" x="254.492188"/>
       <use xlink:href="#DejaVuSans-30" x="290.576172"/>
       <use xlink:href="#DejaVuSans-31" x="354.199219"/>
      </g>
     </g>
    </g>
   </g>
   <g id="matplotlib.axis_2">
    <g id="ytick_1">
     <g id="line2d_23">
      <path d="M 108 307.848064 
L 777.6 307.848064 
" clip-path="url(#p77ead019f3)" style="fill: none; stroke-dasharray: 5.12,1.28,0.8,1.28; stroke-dashoffset: 0; stroke: #b0b0b0; stroke-width: 0.8"/>
     </g>
     <g id="line2d_24">
      <defs>
       <path id="md2f129a0a7" d="M 0 0 
L -3.5 0 
" style="stroke: #a9a9a9; stroke-width: 0.8"/>
      </defs>
      <g>
       <use xlink:href="#md2f129a0a7" x="108" y="307.848064" style="fill: #a9a9a9; stroke: #a9a9a9; stroke-width: 0.8"/>
      </g>
     </g>
     <g id="text_12">
      <!-- 0 -->
      <g style="fill: #a9a9a9" transform="translate(94.6375 311.647283) scale(0.1 -0.1)">
       <use xlink:href="#DejaVuSans-30"/>
      </g>
     </g>
    </g>
    <g id="ytick_2">
     <g id="line2d_25">
      <path d="M 108 279.009613 
L 777.6 279.009613 
" clip-path="url(#p77ead019f3)" style="fill: none; stroke-dasharray: 5.12,1.28,0.8,1.28; stroke-dashoffset: 0; stroke: #b0b0b0; stroke-width: 0.8"/>
     </g>
     <g id="line2d_26">
      <g>
       <use xlink:href="#md2f129a0a7" x="108" y="279.009613" style="fill: #a9a9a9; stroke: #a9a9a9; stroke-width: 0.8"/>
      </g>
     </g>
     <g id="text_13">
      <!-- 600 -->
      <g style="fill: #a9a9a9" transform="translate(81.9125 282.808832) scale(0.1 -0.1)">
       <defs>
        <path id="DejaVuSans-36" d="M 2113 2584 
Q 1688 2584 1439 2293 
Q 1191 2003 1191 1497 
Q 1191 994 1439 701 
Q 1688 409 2113 409 
Q 2538 409 2786 701 
Q 3034 994 3034 1497 
Q 3034 2003 2786 2293 
Q 2538 2584 2113 2584 
z
M 3366 4563 
L 3366 3988 
Q 3128 4100 2886 4159 
Q 2644 4219 2406 4219 
Q 1781 4219 1451 3797 
Q 1122 3375 1075 2522 
Q 1259 2794 1537 2939 
Q 1816 3084 2150 3084 
Q 2853 3084 3261 2657 
Q 3669 2231 3669 1497 
Q 3669 778 3244 343 
Q 2819 -91 2113 -91 
Q 1303 -91 875 529 
Q 447 1150 447 2328 
Q 447 3434 972 4092 
Q 1497 4750 2381 4750 
Q 2619 4750 2861 4703 
Q 3103 4656 3366 4563 
z
" transform="scale(0.015625)"/>
       </defs>
       <use xlink:href="#DejaVuSans-36"/>
       <use xlink:href="#DejaVuSans-30" x="63.623047"/>
       <use xlink:href="#DejaVuSans-30" x="127.246094"/>
      </g>
     </g>
    </g>
    <g id="ytick_3">
     <g id="line2d_27">
      <path d="M 108 250.171162 
L 777.6 250.171162 
" clip-path="url(#p77ead019f3)" style="fill: none; stroke-dasharray: 5.12,1.28,0.8,1.28; stroke-dashoffset: 0; stroke: #b0b0b0; stroke-width: 0.8"/>
     </g>
     <g id="line2d_28">
      <g>
       <use xlink:href="#md2f129a0a7" x="108" y="250.171162" style="fill: #a9a9a9; stroke: #a9a9a9; stroke-width: 0.8"/>
      </g>
     </g>
     <g id="text_14">
      <!-- 1200 -->
      <g style="fill: #a9a9a9" transform="translate(75.55 253.97038) scale(0.1 -0.1)">
       <use xlink:href="#DejaVuSans-31"/>
       <use xlink:href="#DejaVuSans-32" x="63.623047"/>
       <use xlink:href="#DejaVuSans-30" x="127.246094"/>
       <use xlink:href="#DejaVuSans-30" x="190.869141"/>
      </g>
     </g>
    </g>
    <g id="ytick_4">
     <g id="line2d_29">
      <path d="M 108 221.33271 
L 777.6 221.33271 
" clip-path="url(#p77ead019f3)" style="fill: none; stroke-dasharray: 5.12,1.28,0.8,1.28; stroke-dashoffset: 0; stroke: #b0b0b0; stroke-width: 0.8"/>
     </g>
     <g id="line2d_30">
      <g>
       <use xlink:href="#md2f129a0a7" x="108" y="221.33271" style="fill: #a9a9a9; stroke: #a9a9a9; stroke-width: 0.8"/>
      </g>
     </g>
     <g id="text_15">
      <!-- 1800 -->
      <g style="fill: #a9a9a9" transform="translate(75.55 225.131929) scale(0.1 -0.1)">
       <defs>
        <path id="DejaVuSans-38" d="M 2034 2216 
Q 1584 2216 1326 1975 
Q 1069 1734 1069 1313 
Q 1069 891 1326 650 
Q 1584 409 2034 409 
Q 2484 409 2743 651 
Q 3003 894 3003 1313 
Q 3003 1734 2745 1975 
Q 2488 2216 2034 2216 
z
M 1403 2484 
Q 997 2584 770 2862 
Q 544 3141 544 3541 
Q 544 4100 942 4425 
Q 1341 4750 2034 4750 
Q 2731 4750 3128 4425 
Q 3525 4100 3525 3541 
Q 3525 3141 3298 2862 
Q 3072 2584 2669 2484 
Q 3125 2378 3379 2068 
Q 3634 1759 3634 1313 
Q 3634 634 3220 271 
Q 2806 -91 2034 -91 
Q 1263 -91 848 271 
Q 434 634 434 1313 
Q 434 1759 690 2068 
Q 947 2378 1403 2484 
z
M 1172 3481 
Q 1172 3119 1398 2916 
Q 1625 2713 2034 2713 
Q 2441 2713 2670 2916 
Q 2900 3119 2900 3481 
Q 2900 3844 2670 4047 
Q 2441 4250 2034 4250 
Q 1625 4250 1398 4047 
Q 1172 3844 1172 3481 
z
" transform="scale(0.015625)"/>
       </defs>
       <use xlink:href="#DejaVuSans-31"/>
       <use xlink:href="#DejaVuSans-38" x="63.623047"/>
       <use xlink:href="#DejaVuSans-30" x="127.246094"/>
       <use xlink:href="#DejaVuSans-30" x="190.869141"/>
      </g>
     </g>
    </g>
    <g id="ytick_5">
     <g id="line2d_31">
      <path d="M 108 192.494259 
L 777.6 192.494259 
" clip-path="url(#p77ead019f3)" style="fill: none; stroke-dasharray: 5.12,1.28,0.8,1.28; stroke-dashoffset: 0; stroke: #b0b0b0; stroke-width: 0.8"/>
     </g>
     <g id="line2d_32">
      <g>
       <use xlink:href="#md2f129a0a7" x="108" y="192.494259" style="fill: #a9a9a9; stroke: #a9a9a9; stroke-width: 0.8"/>
      </g>
     </g>
     <g id="text_16">
      <!-- 2400 -->
      <g style="fill: #a9a9a9" transform="translate(75.55 196.293478) scale(0.1 -0.1)">
       <use xlink:href="#DejaVuSans-32"/>
       <use xlink:href="#DejaVuSans-34" x="63.623047"/>
       <use xlink:href="#DejaVuSans-30" x="127.246094"/>
       <use xlink:href="#DejaVuSans-30" x="190.869141"/>
      </g>
     </g>
    </g>
    <g id="ytick_6">
     <g id="line2d_33">
      <path d="M 108 163.655808 
L 777.6 163.655808 
" clip-path="url(#p77ead019f3)" style="fill: none; stroke-dasharray: 5.12,1.28,0.8,1.28; stroke-dashoffset: 0; stroke: #b0b0b0; stroke-width: 0.8"/>
     </g>
     <g id="line2d_34">
      <g>
       <use xlink:href="#md2f129a0a7" x="108" y="163.655808" style="fill: #a9a9a9; stroke: #a9a9a9; stroke-width: 0.8"/>
      </g>
     </g>
     <g id="text_17">
      <!-- 3000 -->
      <g style="fill: #a9a9a9" transform="translate(75.55 167.455026) scale(0.1 -0.1)">
       <use xlink:href="#DejaVuSans-33"/>
       <use xlink:href="#DejaVuSans-30" x="63.623047"/>
       <use xlink:href="#DejaVuSans-30" x="127.246094"/>
       <use xlink:href="#DejaVuSans-30" x="190.869141"/>
      </g>
     </g>
    </g>
    <g id="ytick_7">
     <g id="line2d_35">
      <path d="M 108 134.817356 
L 777.6 134.817356 
" clip-path="url(#p77ead019f3)" style="fill: none; stroke-dasharray: 5.12,1.28,0.8,1.28; stroke-dashoffset: 0; stroke: #b0b0b0; stroke-width: 0.8"/>
     </g>
     <g id="line2d_36">
      <g>
       <use xlink:href="#md2f129a0a7" x="108" y="134.817356" style="fill: #a9a9a9; stroke: #a9a9a9; stroke-width: 0.8"/>
      </g>
     </g>
     <g id="text_18">
      <!-- 3600 -->
      <g style="fill: #a9a9a9" transform="translate(75.55 138.616575) scale(0.1 -0.1)">
       <use xlink:href="#DejaVuSans-33"/>
       <use xlink:href="#DejaVuSans-36" x="63.623047"/>
       <use xlink:href="#DejaVuSans-30" x="127.246094"/>
       <use xlink:href="#DejaVuSans-30" x="190.869141"/>
      </g>
     </g>
    </g>
    <g id="ytick_8">
     <g id="line2d_37">
      <path d="M 108 105.978905 
L 777.6 105.978905 
" clip-path="url(#p77ead019f3)" style="fill: none; stroke-dasharray: 5.12,1.28,0.8,1.28; stroke-dashoffset: 0; stroke: #b0b0b0; stroke-width: 0.8"/>
     </g>
     <g id="line2d_38">
      <g>
       <use xlink:href="#md2f129a0a7" x="108" y="105.978905" style="fill: #a9a9a9; stroke: #a9a9a9; stroke-width: 0.8"/>
      </g>
     </g>
     <g id="text_19">
      <!-- 4200 -->
      <g style="fill: #a9a9a9" transform="translate(75.55 109.778124) scale(0.1 -0.1)">
       <use xlink:href="#DejaVuSans-34"/>
       <use xlink:href="#DejaVuSans-32" x="63.623047"/>
       <use xlink:href="#DejaVuSans-30" x="127.246094"/>
       <use xlink:href="#DejaVuSans-30" x="190.869141"/>
      </g>
     </g>
    </g>
    <g id="ytick_9">
     <g id="line2d_39">
      <path d="M 108 77.140454 
L 777.6 77.140454 
" clip-path="url(#p77ead019f3)" style="fill: none; stroke-dasharray: 5.12,1.28,0.8,1.28; stroke-dashoffset: 0; stroke: #b0b0b0; stroke-width: 0.8"/>
     </g>
     <g id="line2d_40">
      <g>
       <use xlink:href="#md2f129a0a7" x="108" y="77.140454" style="fill: #a9a9a9; stroke: #a9a9a9; stroke-width: 0.8"/>
      </g>
     </g>
     <g id="text_20">
      <!-- 4800 -->
      <g style="fill: #a9a9a9" transform="translate(75.55 80.939673) scale(0.1 -0.1)">
       <use xlink:href="#DejaVuSans-34"/>
       <use xlink:href="#DejaVuSans-38" x="63.623047"/>
       <use xlink:href="#DejaVuSans-30" x="127.246094"/>
       <use xlink:href="#DejaVuSans-30" x="190.869141"/>
      </g>
     </g>
    </g>
    <g id="ytick_10">
     <g id="line2d_41">
      <path d="M 108 48.302003 
L 777.6 48.302003 
" clip-path="url(#p77ead019f3)" style="fill: none; stroke-dasharray: 5.12,1.28,0.8,1.28; stroke-dashoffset: 0; stroke: #b0b0b0; stroke-width: 0.8"/>
     </g>
     <g id="line2d_42">
      <g>
       <use xlink:href="#md2f129a0a7" x="108" y="48.302003" style="fill: #a9a9a9; stroke: #a9a9a9; stroke-width: 0.8"/>
      </g>
     </g>
     <g id="text_21">
      <!-- 5400 -->
      <g style="fill: #a9a9a9" transform="translate(75.55 52.101221) scale(0.1 -0.1)">
       <defs>
        <path id="DejaVuSans-35" d="M 691 4666 
L 3169 4666 
L 3169 4134 
L 1269 4134 
L 1269 2991 
Q 1406 3038 1543 3061 
Q 1681 3084 1819 3084 
Q 2600 3084 3056 2656 
Q 3513 2228 3513 1497 
Q 3513 744 3044 326 
Q 2575 -91 1722 -91 
Q 1428 -91 1123 -41 
Q 819 9 494 109 
L 494 744 
Q 775 591 1075 516 
Q 1375 441 1709 441 
Q 2250 441 2565 725 
Q 2881 1009 2881 1497 
Q 2881 1984 2565 2268 
Q 2250 2553 1709 2553 
Q 1456 2553 1204 2497 
Q 953 2441 691 2322 
L 691 4666 
z
" transform="scale(0.015625)"/>
       </defs>
       <use xlink:href="#DejaVuSans-35"/>
       <use xlink:href="#DejaVuSans-34" x="63.623047"/>
       <use xlink:href="#DejaVuSans-30" x="127.246094"/>
       <use xlink:href="#DejaVuSans-30" x="190.869141"/>
      </g>
     </g>
    </g>
   </g>
   <g id="line2d_43">
    <path d="M 138.436364 307.703872 
L 142.673444 307.367423 
L 143.379625 307.079039 
L 145.498165 306.838718 
L 150.441426 305.925501 
L 153.972327 305.589052 
L 154.678507 305.252603 
L 155.384687 305.060347 
L 156.090867 304.195194 
L 156.797047 303.762617 
L 157.503227 302.224566 
L 158.209407 302.128438 
L 158.915587 301.599733 
L 160.327948 300.926836 
L 161.740308 299.869426 
L 162.446488 299.196529 
L 163.858848 298.523632 
L 164.565028 298.235247 
L 165.271209 297.706542 
L 168.095929 296.50494 
L 168.802109 295.399466 
L 169.508289 294.822697 
L 170.92065 294.053672 
L 177.982451 293.09239 
L 178.688631 292.755941 
L 183.631892 292.371429 
L 185.044252 291.986916 
L 186.456613 291.698531 
L 192.106054 290.97757 
L 192.812234 290.593057 
L 193.518414 290.496929 
L 194.224594 290.208545 
L 195.636954 289.968224 
L 196.343134 289.92016 
L 197.049314 289.67984 
L 199.874035 289.247263 
L 201.286395 288.86275 
L 203.404936 288.670494 
L 204.817296 288.526302 
L 205.523476 288.334045 
L 206.229656 288.285981 
L 208.348197 287.661148 
L 212.585277 287.036315 
L 213.291457 286.844059 
L 213.997638 285.882777 
L 216.116178 285.113752 
L 218.234718 284.536983 
L 218.940899 284.200534 
L 219.647079 284.15247 
L 223.177979 283.191188 
L 224.59034 283.09506 
L 225.29652 282.998932 
L 227.41506 282.374099 
L 230.239781 281.701202 
L 230.945961 281.412817 
L 231.652141 281.316689 
L 232.358321 280.98024 
L 239.420122 279.92283 
L 242.951023 278.913485 
L 243.657203 278.480908 
L 246.481924 277.711883 
L 247.894284 276.894793 
L 248.600464 276.414152 
L 249.306644 276.318024 
L 250.012824 276.077704 
L 252.131365 275.693191 
L 252.837545 275.356742 
L 254.249905 275.116422 
L 254.956085 274.731909 
L 256.368445 274.299332 
L 257.074626 274.203204 
L 258.486986 273.818692 
L 259.899346 273.482243 
L 260.605526 273.386115 
L 262.017887 272.809346 
L 262.724067 272.665154 
L 263.430247 272.376769 
L 264.136427 272.280641 
L 264.842607 271.944192 
L 265.548787 271.751936 
L 266.961147 271.655808 
L 268.373508 271.175167 
L 269.785868 271.079039 
L 270.492048 270.74259 
L 273.316769 270.261949 
L 276.141489 270.021629 
L 276.847669 269.877437 
L 278.26003 269.204539 
L 286.028011 265.984246 
L 286.734191 265.599733 
L 287.440371 264.830708 
L 288.146551 263.67717 
L 288.852731 262.763952 
L 289.558912 262.571696 
L 290.265092 262.571696 
L 291.677452 261.56235 
L 292.383632 261.370093 
L 293.089812 260.985581 
L 293.795992 260.841389 
L 294.502173 260.216555 
L 295.208353 260.024299 
L 297.326893 259.014953 
L 298.033073 258.1498 
L 298.739253 257.09239 
L 299.445433 256.659813 
L 300.151614 255.506275 
L 300.857794 254.785314 
L 301.563974 254.448865 
L 302.270154 254.256609 
L 303.682514 253.439519 
L 304.388694 253.103071 
L 307.213415 251.036315 
L 307.919595 250.026969 
L 308.625775 248.440854 
L 309.331955 247.383445 
L 310.038135 246.85474 
L 310.744316 246.566355 
L 313.569036 244.163151 
L 314.275216 243.68251 
L 315.687576 242.480908 
L 316.393757 241.471562 
L 317.806117 240.26996 
L 320.630837 238.491589 
L 321.337018 237.866756 
L 322.043198 237.722563 
L 324.161738 236.617089 
L 325.574098 235.8 
L 326.280278 235.511615 
L 327.692639 234.213885 
L 328.398819 233.396796 
L 329.811179 232.435514 
L 330.517359 232.243258 
L 331.223539 231.906809 
L 331.929719 231.378104 
L 333.34208 230.609079 
L 334.04826 230.512951 
L 335.46062 229.743925 
L 336.1668 229.359413 
L 336.87298 228.638451 
L 337.579161 228.205874 
L 338.285341 227.965554 
L 338.991521 227.484913 
L 341.816241 226.042991 
L 342.522421 225.418158 
L 345.347142 224.456876 
L 346.053322 223.976235 
L 346.759502 223.832043 
L 348.171862 223.351402 
L 350.290403 222.534312 
L 352.408943 221.765287 
L 353.821304 221.524967 
L 355.233664 220.323364 
L 356.646024 219.650467 
L 358.764564 218.448865 
L 360.176925 218.064352 
L 360.883105 217.631776 
L 361.589285 217.439519 
L 363.707825 216.093725 
L 367.238726 215.276636 
L 369.357266 214.075033 
L 370.063447 213.978905 
L 370.769627 213.738585 
L 372.181987 213.4502 
L 374.300527 211.91215 
L 376.419068 211.431509 
L 377.125248 211.191188 
L 377.831428 210.662483 
L 382.068509 209.316689 
L 382.774689 209.268625 
L 387.71795 207.538318 
L 388.42413 207.201869 
L 390.54267 206.721228 
L 391.955031 206.38478 
L 392.661211 206.048331 
L 393.367391 205.904139 
L 395.485931 204.942857 
L 397.604472 203.885447 
L 398.310652 203.404806 
L 399.016832 203.21255 
L 401.135372 202.107076 
L 402.547733 201.770628 
L 403.960093 201.049666 
L 405.372453 200.665154 
L 406.078633 200.569025 
L 406.784813 200.088385 
L 407.490993 199.751936 
L 408.197174 199.607744 
L 409.609534 199.030975 
L 410.315714 198.886782 
L 411.021894 198.50227 
L 413.846615 198.069693 
L 415.258975 197.396796 
L 415.965155 196.820027 
L 416.671335 195.618425 
L 418.083695 195.33004 
L 418.789876 195.185848 
L 421.614596 193.743925 
L 422.320776 193.599733 
L 427.970217 190.908144 
L 430.088758 190.475567 
L 431.501118 189.80267 
L 432.207298 189.514286 
L 432.913478 189.418158 
L 435.738199 188.168491 
L 437.150559 187.20721 
L 437.856739 186.870761 
L 438.562919 186.774633 
L 439.269099 186.534312 
L 439.975279 186.486248 
L 443.50618 185.573031 
L 444.21236 185.044326 
L 445.624721 184.563685 
L 447.743261 183.890788 
L 448.449441 183.458211 
L 449.155621 183.265955 
L 449.861801 182.785314 
L 450.567981 182.496929 
L 451.274162 182.064352 
L 452.686522 181.535648 
L 454.805062 180.86275 
L 455.511242 180.526302 
L 456.217422 179.997597 
L 456.923603 179.276636 
L 457.629783 178.844059 
L 458.335963 178.699866 
L 459.748323 177.642457 
L 460.454503 177.498264 
L 461.160683 176.440854 
L 461.866864 176.15247 
L 462.573044 175.623765 
L 463.279224 175.527637 
L 463.985404 175.046996 
L 464.691584 174.710547 
L 465.397764 174.566355 
L 466.103944 174.277971 
L 466.810124 173.701202 
L 467.516305 173.460881 
L 469.634845 172.067023 
L 472.459565 170.673164 
L 473.165746 170.577036 
L 474.578106 169.952203 
L 475.284286 169.519626 
L 475.990466 168.366088 
L 476.696646 167.741255 
L 477.402826 167.356742 
L 478.109007 167.21255 
L 479.521367 166.347397 
L 480.227547 166.203204 
L 481.639907 165.530307 
L 483.758448 164.665154 
L 485.170808 163.703872 
L 486.583168 162.213885 
L 487.995528 161.348732 
L 488.701709 160.916155 
L 489.407889 160.195194 
L 490.114069 159.714553 
L 491.526429 158.561015 
L 492.232609 158.27263 
L 492.938789 157.503605 
L 493.644969 156.9749 
L 495.05733 156.494259 
L 495.76351 155.869426 
L 497.17587 155.148465 
L 497.88205 154.956208 
L 498.58823 154.475567 
L 499.29441 154.283311 
L 501.412951 153.177837 
L 502.119131 152.649132 
L 503.531491 152.072363 
L 504.237671 151.928171 
L 504.943852 151.495594 
L 509.887112 149.813351 
L 510.593293 149.188518 
L 512.711833 148.419493 
L 514.124193 147.986916 
L 514.830373 147.458211 
L 516.948914 146.496929 
L 517.655094 145.968224 
L 518.361274 145.583712 
L 519.773634 142.844059 
L 521.185995 141.20988 
L 521.892175 140.729239 
L 524.010715 139.816021 
L 524.716895 139.575701 
L 525.423075 139.479573 
L 526.129255 139.09506 
L 528.247796 138.470227 
L 530.366336 137.653138 
L 531.778696 136.73992 
L 533.897237 135.826702 
L 537.428138 133.808011 
L 538.134318 133.087049 
L 539.546678 132.318024 
L 540.252858 131.933511 
L 540.959038 131.693191 
L 541.665218 131.21255 
L 543.077579 130.539653 
L 545.196119 129.434179 
L 545.902299 129.241923 
L 546.608479 128.713218 
L 547.314659 128.424833 
L 548.020839 128.280641 
L 549.4332 127.703872 
L 551.55174 126.934846 
L 552.25792 126.406142 
L 553.670281 126.021629 
L 555.082641 125.492924 
L 555.788821 124.916155 
L 557.201181 124.483578 
L 557.907361 124.14713 
L 558.613541 123.954873 
L 560.025902 122.993591 
L 561.438262 122.368758 
L 562.850622 121.311348 
L 564.262982 120.830708 
L 564.969163 120.253939 
L 565.675343 120.109746 
L 566.381523 119.532977 
L 567.793883 118.715888 
L 569.206243 118.139119 
L 569.912424 117.418158 
L 574.149504 115.880107 
L 576.268045 114.966889 
L 578.386585 114.342056 
L 579.798945 114.1498 
L 580.505126 113.861415 
L 581.211306 113.717223 
L 582.623666 113.140454 
L 583.329846 113.09239 
L 586.154567 112.083044 
L 588.273107 110.641121 
L 592.510188 108.574366 
L 594.628728 107.228571 
L 596.041088 106.892123 
L 597.453449 105.930841 
L 600.278169 105.065688 
L 600.984349 104.777303 
L 602.39671 104.440854 
L 605.92761 103.287316 
L 608.046151 102.902804 
L 608.752331 102.710547 
L 609.458511 102.374099 
L 610.164691 102.277971 
L 611.577051 101.701202 
L 612.283231 101.605073 
L 612.989412 101.268625 
L 614.401772 100.98024 
L 615.107952 100.643792 
L 617.226492 100.163151 
L 618.638853 99.874766 
L 622.875933 99.105741 
L 624.288294 98.817356 
L 624.994474 98.673164 
L 625.700654 98.38478 
L 626.406834 98.336716 
L 628.525374 97.759947 
L 629.231555 97.375434 
L 632.762455 96.51028 
L 633.468635 96.366088 
L 636.293356 95.308678 
L 636.999536 95.068358 
L 637.705716 94.97223 
L 639.824256 94.251268 
L 640.530437 94.251268 
L 641.942797 93.770628 
L 642.648977 93.09773 
L 643.355157 92.761282 
L 644.767517 92.328705 
L 647.592238 91.271295 
L 648.298418 91.127103 
L 649.004598 90.694526 
L 649.710778 90.550334 
L 650.416958 90.117757 
L 653.947859 89.060347 
L 654.654039 88.62777 
L 655.360219 88.435514 
L 656.066399 87.858745 
L 658.18494 87.474232 
L 659.5973 86.705207 
L 660.30348 85.936182 
L 661.715841 85.647797 
L 665.952921 84.686515 
L 667.365282 84.302003 
L 668.777642 84.253939 
L 669.483822 83.91749 
L 672.308543 83.436849 
L 673.014723 83.100401 
L 675.133263 82.812016 
L 676.545623 82.283311 
L 677.251803 81.946862 
L 677.957984 81.898798 
L 680.076524 81.418158 
L 682.195064 80.889453 
L 685.019785 80.024299 
L 685.725965 79.880107 
L 686.432145 79.543658 
L 687.138325 79.44753 
L 687.844505 79.20721 
L 688.550686 78.774633 
L 690.669226 78.005607 
L 691.375406 77.476903 
L 692.787766 77.09239 
L 693.493946 76.804005 
L 694.906307 76.419493 
L 697.731027 75.121762 
L 699.849568 74.97757 
L 702.674288 74.112417 
L 703.380468 73.67984 
L 704.792829 73.247263 
L 706.911369 72.189853 
L 707.617549 72.045661 
L 708.323729 71.709212 
L 709.029909 71.613084 
L 717.504071 68.825367 
L 720.328791 68.104406 
L 721.741152 67.431509 
L 723.859692 66.902804 
L 724.565872 66.374099 
L 725.272052 66.03765 
L 725.978232 65.220561 
L 726.684413 64.691856 
L 728.096773 64.259279 
L 728.802953 63.68251 
L 736.570934 60.51028 
L 737.983295 60.173832 
L 739.395655 59.548999 
L 741.514195 58.299332 
L 742.220375 58.15514 
L 742.926556 57.626435 
L 744.338916 56.953538 
L 745.751276 56.088385 
L 746.457456 55.8 
L 747.163636 55.8 
L 747.163636 55.8 
" clip-path="url(#p77ead019f3)" style="fill: none; stroke: #1f77b4; stroke-width: 1.5; stroke-linecap: square"/>
   </g>
   <g id="line2d_44">
    <path d="M 139.142544 307.8 
L 141.261084 307.703872 
L 143.379625 307.655808 
L 147.616705 307.55968 
L 151.147606 307.415487 
L 153.972327 307.415487 
L 154.678507 307.223231 
L 156.797047 307.175167 
L 161.034128 306.694526 
L 171.62683 306.069693 
L 177.276271 305.973565 
L 180.807171 305.829372 
L 189.281333 305.733244 
L 192.812234 305.589052 
L 197.049314 305.492924 
L 199.874035 305.396796 
L 206.229656 305.300668 
L 208.348197 305.252603 
L 210.466737 305.204539 
L 212.585277 304.964219 
L 216.822358 304.916155 
L 218.234718 304.820027 
L 223.177979 304.723899 
L 230.945961 304.291322 
L 235.889222 304.195194 
L 237.301582 304.099065 
L 239.420122 304.002937 
L 243.657203 303.810681 
L 246.481924 303.762617 
L 248.600464 303.57036 
L 259.899346 302.897463 
L 262.724067 302.801335 
L 267.667328 302.561015 
L 269.785868 302.464887 
L 276.847669 302.080374 
L 284.615651 301.984246 
L 287.440371 301.695861 
L 288.852731 301.599733 
L 298.033073 300.878772 
L 302.270154 300.350067 
L 305.094874 300.253939 
L 310.744316 299.532977 
L 314.275216 299.436849 
L 323.455558 298.715888 
L 327.692639 298.235247 
L 329.811179 298.187183 
L 331.223539 298.091055 
L 334.04826 297.994927 
L 335.46062 297.898798 
L 338.991521 297.56235 
L 339.697701 297.370093 
L 343.934782 297.177837 
L 347.465682 297.081709 
L 356.646024 296.553004 
L 358.764564 296.456876 
L 367.944906 295.928171 
L 372.888167 295.832043 
L 373.594347 295.68785 
L 379.243788 295.591722 
L 384.187049 295.351402 
L 391.955031 295.255274 
L 396.898291 295.014953 
L 402.547733 294.918825 
L 408.903354 294.582377 
L 413.140435 294.486248 
L 426.557857 293.669159 
L 432.207298 293.573031 
L 435.738199 293.236582 
L 437.150559 293.09239 
L 440.68146 293.044326 
L 443.50618 292.755941 
L 450.567981 292.371429 
L 454.805062 292.2753 
L 456.923603 292.227236 
L 459.042143 292.179172 
L 461.160683 291.986916 
L 466.810124 291.890788 
L 468.222485 291.650467 
L 469.634845 291.554339 
L 472.459565 291.458211 
L 474.578106 291.362083 
L 475.990466 291.265955 
L 482.346087 291.169826 
L 483.758448 291.025634 
L 486.583168 290.929506 
L 487.289348 290.785314 
L 488.701709 290.73725 
L 489.407889 290.593057 
L 491.526429 290.496929 
L 503.531491 289.775968 
L 505.650032 289.67984 
L 509.180932 289.535648 
L 519.067454 289.439519 
L 524.010715 289.199199 
L 529.660156 289.103071 
L 532.484877 289.006943 
L 535.309597 288.958879 
L 536.721957 288.814686 
L 539.546678 288.718558 
L 546.608479 288.334045 
L 550.84556 288.285981 
L 552.9641 288.093725 
L 555.082641 288.045661 
L 560.025902 287.949533 
L 562.850622 287.853405 
L 571.324784 287.757276 
L 574.855684 287.613084 
L 579.092765 287.516956 
L 581.211306 287.276636 
L 585.448386 287.228571 
L 586.154567 287.084379 
L 587.566927 286.988251 
L 590.391647 286.892123 
L 598.865809 286.795995 
L 602.39671 286.651802 
L 614.401772 286.603738 
L 615.814132 286.50761 
L 617.932672 286.459546 
L 627.113014 286.363418 
L 628.525374 286.26729 
L 636.293356 286.171162 
L 639.118076 286.075033 
L 647.592238 286.026969 
L 649.004598 285.930841 
L 659.5973 285.882777 
L 661.715841 285.690521 
L 673.720903 285.594393 
L 675.839443 285.546328 
L 694.200127 285.4502 
L 697.024847 285.354072 
L 709.736089 285.257944 
L 711.14845 285.113752 
L 717.504071 285.017623 
L 725.272052 284.585047 
L 729.509133 284.488919 
L 732.333854 284.39279 
L 735.864754 284.344726 
L 737.277115 284.248598 
L 742.926556 284.15247 
L 747.163636 283.960214 
L 747.163636 283.960214 
" clip-path="url(#p77ead019f3)" style="fill: none; stroke: #ff7f0e; stroke-width: 1.5; stroke-linecap: square"/>
   </g>
   <g id="patch_3">
    <path d="M 108 320.4 
L 108 43.2 
" style="fill: none; stroke: #a9a9a9; stroke-width: 0.8; stroke-linejoin: miter; stroke-linecap: square"/>
   </g>
   <g id="patch_4">
    <path d="M 777.6 320.4 
L 777.6 43.2 
" style="fill: none"/>
   </g>
   <g id="patch_5">
    <path d="M 108 320.4 
L 777.6 320.4 
" style="fill: none; stroke: #a9a9a9; stroke-width: 0.8; stroke-linejoin: miter; stroke-linecap: square"/>
   </g>
   <g id="patch_6">
    <path d="M 108 43.2 
L 777.6 43.2 
" style="fill: none"/>
   </g>
   <g id="text_22">
    <!-- get_subscribe history -->
    <g style="fill: #a9a9a9" transform="translate(378.6075 37.2) scale(0.12 -0.12)">
     <defs>
      <path id="DejaVuSans-67" d="M 2906 1791 
Q 2906 2416 2648 2759 
Q 2391 3103 1925 3103 
Q 1463 3103 1205 2759 
Q 947 2416 947 1791 
Q 947 1169 1205 825 
Q 1463 481 1925 481 
Q 2391 481 2648 825 
Q 2906 1169 2906 1791 
z
M 3481 434 
Q 3481 -459 3084 -895 
Q 2688 -1331 1869 -1331 
Q 1566 -1331 1297 -1286 
Q 1028 -1241 775 -1147 
L 775 -588 
Q 1028 -725 1275 -790 
Q 1522 -856 1778 -856 
Q 2344 -856 2625 -561 
Q 2906 -266 2906 331 
L 2906 616 
Q 2728 306 2450 153 
Q 2172 0 1784 0 
Q 1141 0 747 490 
Q 353 981 353 1791 
Q 353 2603 747 3093 
Q 1141 3584 1784 3584 
Q 2172 3584 2450 3431 
Q 2728 3278 2906 2969 
L 2906 3500 
L 3481 3500 
L 3481 434 
z
" transform="scale(0.015625)"/>
      <path id="DejaVuSans-65" d="M 3597 1894 
L 3597 1613 
L 953 1613 
Q 991 1019 1311 708 
Q 1631 397 2203 397 
Q 2534 397 2845 478 
Q 3156 559 3463 722 
L 3463 178 
Q 3153 47 2828 -22 
Q 2503 -91 2169 -91 
Q 1331 -91 842 396 
Q 353 884 353 1716 
Q 353 2575 817 3079 
Q 1281 3584 2069 3584 
Q 2775 3584 3186 3129 
Q 3597 2675 3597 1894 
z
M 3022 2063 
Q 3016 2534 2758 2815 
Q 2500 3097 2075 3097 
Q 1594 3097 1305 2825 
Q 1016 2553 972 2059 
L 3022 2063 
z
" transform="scale(0.015625)"/>
      <path id="DejaVuSans-74" d="M 1172 4494 
L 1172 3500 
L 2356 3500 
L 2356 3053 
L 1172 3053 
L 1172 1153 
Q 1172 725 1289 603 
Q 1406 481 1766 481 
L 2356 481 
L 2356 0 
L 1766 0 
Q 1100 0 847 248 
Q 594 497 594 1153 
L 594 3053 
L 172 3053 
L 172 3500 
L 594 3500 
L 594 4494 
L 1172 4494 
z
" transform="scale(0.015625)"/>
      <path id="DejaVuSans-5f" d="M 3263 -1063 
L 3263 -1509 
L -63 -1509 
L -63 -1063 
L 3263 -1063 
z
" transform="scale(0.015625)"/>
      <path id="DejaVuSans-73" d="M 2834 3397 
L 2834 2853 
Q 2591 2978 2328 3040 
Q 2066 3103 1784 3103 
Q 1356 3103 1142 2972 
Q 928 2841 928 2578 
Q 928 2378 1081 2264 
Q 1234 2150 1697 2047 
L 1894 2003 
Q 2506 1872 2764 1633 
Q 3022 1394 3022 966 
Q 3022 478 2636 193 
Q 2250 -91 1575 -91 
Q 1294 -91 989 -36 
Q 684 19 347 128 
L 347 722 
Q 666 556 975 473 
Q 1284 391 1588 391 
Q 1994 391 2212 530 
Q 2431 669 2431 922 
Q 2431 1156 2273 1281 
Q 2116 1406 1581 1522 
L 1381 1569 
Q 847 1681 609 1914 
Q 372 2147 372 2553 
Q 372 3047 722 3315 
Q 1072 3584 1716 3584 
Q 2034 3584 2315 3537 
Q 2597 3491 2834 3397 
z
" transform="scale(0.015625)"/>
      <path id="DejaVuSans-75" d="M 544 1381 
L 544 3500 
L 1119 3500 
L 1119 1403 
Q 1119 906 1312 657 
Q 1506 409 1894 409 
Q 2359 409 2629 706 
Q 2900 1003 2900 1516 
L 2900 3500 
L 3475 3500 
L 3475 0 
L 2900 0 
L 2900 538 
Q 2691 219 2414 64 
Q 2138 -91 1772 -91 
Q 1169 -91 856 284 
Q 544 659 544 1381 
z
M 1991 3584 
L 1991 3584 
z
" transform="scale(0.015625)"/>
      <path id="DejaVuSans-62" d="M 3116 1747 
Q 3116 2381 2855 2742 
Q 2594 3103 2138 3103 
Q 1681 3103 1420 2742 
Q 1159 2381 1159 1747 
Q 1159 1113 1420 752 
Q 1681 391 2138 391 
Q 2594 391 2855 752 
Q 3116 1113 3116 1747 
z
M 1159 2969 
Q 1341 3281 1617 3432 
Q 1894 3584 2278 3584 
Q 2916 3584 3314 3078 
Q 3713 2572 3713 1747 
Q 3713 922 3314 415 
Q 2916 -91 2278 -91 
Q 1894 -91 1617 61 
Q 1341 213 1159 525 
L 1159 0 
L 581 0 
L 581 4863 
L 1159 4863 
L 1159 2969 
z
" transform="scale(0.015625)"/>
      <path id="DejaVuSans-63" d="M 3122 3366 
L 3122 2828 
Q 2878 2963 2633 3030 
Q 2388 3097 2138 3097 
Q 1578 3097 1268 2742 
Q 959 2388 959 1747 
Q 959 1106 1268 751 
Q 1578 397 2138 397 
Q 2388 397 2633 464 
Q 2878 531 3122 666 
L 3122 134 
Q 2881 22 2623 -34 
Q 2366 -91 2075 -91 
Q 1284 -91 818 406 
Q 353 903 353 1747 
Q 353 2603 823 3093 
Q 1294 3584 2113 3584 
Q 2378 3584 2631 3529 
Q 2884 3475 3122 3366 
z
" transform="scale(0.015625)"/>
      <path id="DejaVuSans-72" d="M 2631 2963 
Q 2534 3019 2420 3045 
Q 2306 3072 2169 3072 
Q 1681 3072 1420 2755 
Q 1159 2438 1159 1844 
L 1159 0 
L 581 0 
L 581 3500 
L 1159 3500 
L 1159 2956 
Q 1341 3275 1631 3429 
Q 1922 3584 2338 3584 
Q 2397 3584 2469 3576 
Q 2541 3569 2628 3553 
L 2631 2963 
z
" transform="scale(0.015625)"/>
      <path id="DejaVuSans-69" d="M 603 3500 
L 1178 3500 
L 1178 0 
L 603 0 
L 603 3500 
z
M 603 4863 
L 1178 4863 
L 1178 4134 
L 603 4134 
L 603 4863 
z
" transform="scale(0.015625)"/>
      <path id="DejaVuSans-20" transform="scale(0.015625)"/>
      <path id="DejaVuSans-68" d="M 3513 2113 
L 3513 0 
L 2938 0 
L 2938 2094 
Q 2938 2591 2744 2837 
Q 2550 3084 2163 3084 
Q 1697 3084 1428 2787 
Q 1159 2491 1159 1978 
L 1159 0 
L 581 0 
L 581 4863 
L 1159 4863 
L 1159 2956 
Q 1366 3272 1645 3428 
Q 1925 3584 2291 3584 
Q 2894 3584 3203 3211 
Q 3513 2838 3513 2113 
z
" transform="scale(0.015625)"/>
      <path id="DejaVuSans-6f" d="M 1959 3097 
Q 1497 3097 1228 2736 
Q 959 2375 959 1747 
Q 959 1119 1226 758 
Q 1494 397 1959 397 
Q 2419 397 2687 759 
Q 2956 1122 2956 1747 
Q 2956 2369 2687 2733 
Q 2419 3097 1959 3097 
z
M 1959 3584 
Q 2709 3584 3137 3096 
Q 3566 2609 3566 1747 
Q 3566 888 3137 398 
Q 2709 -91 1959 -91 
Q 1206 -91 779 398 
Q 353 888 353 1747 
Q 353 2609 779 3096 
Q 1206 3584 1959 3584 
z
" transform="scale(0.015625)"/>
      <path id="DejaVuSans-79" d="M 2059 -325 
Q 1816 -950 1584 -1140 
Q 1353 -1331 966 -1331 
L 506 -1331 
L 506 -850 
L 844 -850 
Q 1081 -850 1212 -737 
Q 1344 -625 1503 -206 
L 1606 56 
L 191 3500 
L 800 3500 
L 1894 763 
L 2988 3500 
L 3597 3500 
L 2059 -325 
z
" transform="scale(0.015625)"/>
     </defs>
     <use xlink:href="#DejaVuSans-67"/>
     <use xlink:href="#DejaVuSans-65" x="63.476562"/>
     <use xlink:href="#DejaVuSans-74" x="125"/>
     <use xlink:href="#DejaVuSans-5f" x="164.208984"/>
     <use xlink:href="#DejaVuSans-73" x="214.208984"/>
     <use xlink:href="#DejaVuSans-75" x="266.308594"/>
     <use xlink:href="#DejaVuSans-62" x="329.6875"/>
     <use xlink:href="#DejaVuSans-73" x="393.164062"/>
     <use xlink:href="#DejaVuSans-63" x="445.263672"/>
     <use xlink:href="#DejaVuSans-72" x="500.244141"/>
     <use xlink:href="#DejaVuSans-69" x="541.357422"/>
     <use xlink:href="#DejaVuSans-62" x="569.140625"/>
     <use xlink:href="#DejaVuSans-65" x="632.617188"/>
     <use xlink:href="#DejaVuSans-20" x="694.140625"/>
     <use xlink:href="#DejaVuSans-68" x="725.927734"/>
     <use xlink:href="#DejaVuSans-69" x="789.306641"/>
     <use xlink:href="#DejaVuSans-73" x="817.089844"/>
     <use xlink:href="#DejaVuSans-74" x="869.189453"/>
     <use xlink:href="#DejaVuSans-6f" x="908.398438"/>
     <use xlink:href="#DejaVuSans-72" x="969.580078"/>
     <use xlink:href="#DejaVuSans-79" x="1010.693359"/>
    </g>
   </g>
   <g id="legend_1">
    <g id="line2d_45">
     <path d="M 815.08 328.498438 
L 825.08 328.498438 
L 835.08 328.498438 
" style="fill: none; stroke: #1f77b4; stroke-width: 1.5; stroke-linecap: square"/>
    </g>
    <g id="text_23">
     <!-- star -->
     <g style="fill: #a9a9a9" transform="translate(843.08 331.998438) scale(0.1 -0.1)">
      <defs>
       <path id="DejaVuSans-61" d="M 2194 1759 
Q 1497 1759 1228 1600 
Q 959 1441 959 1056 
Q 959 750 1161 570 
Q 1363 391 1709 391 
Q 2188 391 2477 730 
Q 2766 1069 2766 1631 
L 2766 1759 
L 2194 1759 
z
M 3341 1997 
L 3341 0 
L 2766 0 
L 2766 531 
Q 2569 213 2275 61 
Q 1981 -91 1556 -91 
Q 1019 -91 701 211 
Q 384 513 384 1019 
Q 384 1609 779 1909 
Q 1175 2209 1959 2209 
L 2766 2209 
L 2766 2266 
Q 2766 2663 2505 2880 
Q 2244 3097 1772 3097 
Q 1472 3097 1187 3025 
Q 903 2953 641 2809 
L 641 3341 
Q 956 3463 1253 3523 
Q 1550 3584 1831 3584 
Q 2591 3584 2966 3190 
Q 3341 2797 3341 1997 
z
" transform="scale(0.015625)"/>
      </defs>
      <use xlink:href="#DejaVuSans-73"/>
      <use xlink:href="#DejaVuSans-74" x="52.099609"/>
      <use xlink:href="#DejaVuSans-61" x="91.308594"/>
      <use xlink:href="#DejaVuSans-72" x="152.587891"/>
     </g>
    </g>
    <g id="line2d_46">
     <path d="M 815.08 343.176562 
L 825.08 343.176562 
L 835.08 343.176562 
" style="fill: none; stroke: #ff7f0e; stroke-width: 1.5; stroke-linecap: square"/>
    </g>
    <g id="text_24">
     <!-- fork -->
     <g style="fill: #a9a9a9" transform="translate(843.08 346.676562) scale(0.1 -0.1)">
      <defs>
       <path id="DejaVuSans-66" d="M 2375 4863 
L 2375 4384 
L 1825 4384 
Q 1516 4384 1395 4259 
Q 1275 4134 1275 3809 
L 1275 3500 
L 2222 3500 
L 2222 3053 
L 1275 3053 
L 1275 0 
L 697 0 
L 697 3053 
L 147 3053 
L 147 3500 
L 697 3500 
L 697 3744 
Q 697 4328 969 4595 
Q 1241 4863 1831 4863 
L 2375 4863 
z
" transform="scale(0.015625)"/>
       <path id="DejaVuSans-6b" d="M 581 4863 
L 1159 4863 
L 1159 1991 
L 2875 3500 
L 3609 3500 
L 1753 1863 
L 3688 0 
L 2938 0 
L 1159 1709 
L 1159 0 
L 581 0 
L 581 4863 
z
" transform="scale(0.015625)"/>
      </defs>
      <use xlink:href="#DejaVuSans-66"/>
      <use xlink:href="#DejaVuSans-6f" x="35.205078"/>
      <use xlink:href="#DejaVuSans-72" x="96.386719"/>
      <use xlink:href="#DejaVuSans-6b" x="137.5"/>
     </g>
    </g>
   </g>
  </g>
 </g>
 <defs>
  <clipPath id="p77ead019f3">
   <rect x="108" y="43.2" width="669.6" height="277.2"/>
  </clipPath>
 </defs>
</svg>
